<svg xmlns="http://www.w3.org/2000/svg" xmlns:xlink="http://www.w3.org/1999/xlink" version="1.1" width="256" height="256" viewBox="0 0 256 256" xml:space="preserve">
<desc>Created with Fabric.js 1.7.22</desc>
<defs>
</defs>
<g transform="translate(128 128) scale(0.72 0.72)" style="">
	<g style="stroke: none; stroke-width: 0; stroke-dasharray: none; stroke-linecap: butt; stroke-linejoin: miter; stroke-miterlimit: 10; fill: none; fill-rule: nonzero; opacity: 1;" transform="translate(-175.05 -175.05000000000004) scale(3.89 3.89)" >
	<path d="M 89.757 24.497 c -1.689 -1.958 -3.529 -3.416 -5.419 -4.323 c 0.163 -0.002 0.328 0 0.494 0.003 c 0.461 -0.011 0.843 -0.277 0.976 -0.703 c 0.132 -0.425 -0.033 -0.887 -0.405 -1.132 c -3.63 -2.389 -6.625 -3.625 -9.046 -3.72 c 0.247 -0.141 0.502 -0.253 0.764 -0.337 c 0.426 -0.137 0.71 -0.54 0.693 -0.988 c -0.016 -0.447 -0.327 -0.83 -0.762 -0.936 c -3.222 -0.786 -5.674 -0.6 -7.496 0.57 c -1.346 0.863 -2.311 2.25 -2.927 4.216 c -4.063 -3.327 -6.792 -2.861 -11.267 1.492 c -0.325 0.316 -0.396 0.813 -0.174 1.208 c 0.222 0.396 0.681 0.592 1.123 0.477 c 0.266 -0.069 0.541 -0.11 0.825 -0.124 c -1.994 1.376 -3.862 4.023 -5.649 7.985 c -0.184 0.406 -0.076 0.885 0.264 1.173 c 0.341 0.289 0.831 0.317 1.2 0.071 c 0.139 -0.091 0.277 -0.181 0.416 -0.267 c -1.11 1.777 -1.884 3.994 -2.263 6.552 c -0.067 0.456 0.186 0.898 0.612 1.073 c 0.425 0.174 0.916 0.034 1.187 -0.34 c 1.604 -2.214 4.688 -4.064 8.138 -5.022 c -1.764 2.44 -2.367 6.124 -1.506 10.252 c 0.097 0.464 0.505 0.796 0.979 0.796 c 0.002 0 0.004 0 0.007 0 c 0.476 -0.003 0.884 -0.341 0.975 -0.809 c 0.69 -3.537 4.176 -7.893 7.463 -9.715 c 1.23 4.205 2.005 9.212 2.394 14.484 C 62.566 55.12 53.703 59.531 45 59.531 c -8.703 0 -17.567 -4.411 -26.352 -13.097 c 0.388 -5.272 1.164 -10.279 2.394 -14.484 c 3.288 1.822 6.773 6.178 7.462 9.715 c 0.091 0.467 0.499 0.806 0.975 0.809 c 0.002 0 0.005 0 0.007 0 c 0.473 0 0.882 -0.332 0.979 -0.796 c 0.861 -4.128 0.258 -7.812 -1.505 -10.252 c 3.45 0.958 6.533 2.808 8.138 5.022 c 0.269 0.373 0.761 0.513 1.187 0.339 c 0.427 -0.174 0.679 -0.617 0.612 -1.072 c -0.379 -2.559 -1.153 -4.774 -2.264 -6.552 c 0.139 0.086 0.278 0.175 0.417 0.267 c 0.37 0.247 0.86 0.218 1.2 -0.071 s 0.447 -0.767 0.264 -1.173 c -1.787 -3.962 -3.655 -6.609 -5.649 -7.985 c 0.284 0.014 0.559 0.055 0.825 0.124 c 0.438 0.115 0.9 -0.082 1.123 -0.477 c 0.223 -0.396 0.151 -0.891 -0.174 -1.208 c -4.475 -4.354 -7.204 -4.819 -11.268 -1.492 c -0.615 -1.966 -1.58 -3.353 -2.925 -4.216 c -1.822 -1.169 -4.275 -1.356 -7.496 -0.57 c -0.435 0.106 -0.746 0.489 -0.762 0.936 c -0.016 0.448 0.268 0.851 0.694 0.988 c 0.262 0.084 0.517 0.196 0.764 0.337 c -2.42 0.095 -5.417 1.331 -9.047 3.72 c -0.372 0.245 -0.538 0.707 -0.405 1.132 c 0.132 0.426 0.5 0.688 0.976 0.703 c 0.165 -0.004 0.33 -0.006 0.495 -0.003 c -1.89 0.907 -3.73 2.364 -5.42 4.323 c -0.301 0.349 -0.325 0.858 -0.058 1.233 c 0.266 0.374 0.753 0.519 1.185 0.349 c 2.568 -1.023 6.21 -0.923 9.668 0.146 c -2.8 1.119 -5.287 3.91 -6.767 7.85 c -0.167 0.446 0.002 0.947 0.406 1.2 c 0.404 0.251 0.929 0.186 1.256 -0.161 c 2.153 -2.277 6.303 -3.944 9.787 -4.221 c -5.236 11.623 -5.361 31.482 -5.435 44.736 l -0.003 0.484 h -5.45 c -0.552 0 -1 0.447 -1 1 s 0.448 1 1 1 h 6.438 c 0.002 0 0.004 0 0.006 0 h 67.445 c 0.002 0 0.004 0 0.006 0 h 6.438 c 0.553 0 1 -0.447 1 -1 s -0.447 -1 -1 -1 h -5.45 l -0.003 -0.489 c -0.075 -13.252 -0.2 -33.11 -5.435 -44.731 c 3.485 0.276 7.633 1.944 9.787 4.221 c 0.326 0.346 0.853 0.412 1.256 0.161 c 0.404 -0.252 0.574 -0.754 0.407 -1.2 c -1.48 -3.94 -3.967 -6.731 -6.767 -7.85 c 3.459 -1.071 7.1 -1.17 9.668 -0.146 c 0.43 0.17 0.916 0.026 1.185 -0.349 C 90.082 25.354 90.058 24.845 89.757 24.497 z M 67.596 52.483 C 60.008 63.471 52.426 69.029 45 69.029 c -7.425 0 -15.008 -5.559 -22.596 -16.546 C 37.403 64.501 52.596 64.501 67.596 52.483 z M 45 71.029 c 8.892 0 17.819 -7.043 26.562 -20.941 c 0.376 9.32 -0.361 18.976 -1.833 26.025 H 20.271 c -1.472 -7.049 -2.208 -16.704 -1.833 -26.024 C 27.181 63.986 36.107 71.029 45 71.029 z M 14.802 27.787 c 0.483 0.099 0.971 -0.171 1.141 -0.636 c 0.17 -0.466 -0.027 -0.986 -0.462 -1.222 c -3.546 -1.924 -7.69 -2.808 -11.244 -2.513 c 2.127 -1.662 4.366 -2.469 6.494 -2.315 c 0.494 0.026 0.94 -0.295 1.049 -0.778 s -0.152 -0.973 -0.614 -1.152 c -0.884 -0.343 -1.818 -0.598 -2.796 -0.764 c 3.523 -1.892 6.13 -2.283 7.768 -1.165 c 0.389 0.266 0.908 0.224 1.25 -0.099 c 0.342 -0.322 0.413 -0.839 0.17 -1.242 c -0.474 -0.788 -0.999 -1.457 -1.571 -2.004 c 1.394 -0.075 2.515 0.163 3.378 0.718 c 1.208 0.775 2.01 2.266 2.451 4.558 c 0.069 0.357 0.327 0.649 0.673 0.762 c 0.346 0.112 0.727 0.028 0.992 -0.221 c 3.29 -3.078 4.981 -3.573 7.805 -1.382 c -0.781 0.154 -1.586 0.439 -2.412 0.853 c -0.42 0.21 -0.637 0.685 -0.521 1.141 c 0.116 0.456 0.529 0.768 1.003 0.753 c 1.963 -0.066 3.974 1.659 5.937 5.142 c -0.916 -0.383 -1.841 -0.668 -2.771 -0.851 c -0.486 -0.099 -0.969 0.178 -1.135 0.645 s 0.033 0.984 0.47 1.218 c 1.883 1.009 3.339 2.89 4.246 5.433 c -2.834 -2.144 -6.797 -3.617 -10.809 -3.896 c -0.496 -0.027 -0.944 0.303 -1.047 0.79 c -0.104 0.488 0.167 0.977 0.636 1.147 c 2.314 0.843 3.719 3.249 3.942 6.426 c -2.146 -3.702 -5.851 -7.072 -9.101 -7.865 c -3.103 -0.981 -7.912 -0.093 -11.627 1.846 C 9.969 28.576 12.416 27.296 14.802 27.787 z M 12.286 75.641 c 0.075 -13.367 0.188 -33.568 5.576 -44.658 c 0.01 -0.02 0.008 -0.042 0.016 -0.062 c 0.451 0.055 0.88 0.136 1.268 0.261 c 0.011 0.004 0.023 0.006 0.034 0.01 c -3.757 12.645 -3.446 32.551 -0.949 44.922 h -5.948 L 12.286 75.641 z M 77.717 76.113 h -5.948 c 2.497 -12.37 2.807 -32.276 -0.948 -44.922 c 0.011 -0.003 0.022 -0.006 0.033 -0.009 c 0.388 -0.125 0.818 -0.207 1.268 -0.261 c 0.008 0.02 0.006 0.042 0.016 0.062 c 5.388 11.089 5.501 31.287 5.576 44.653 L 77.717 76.113 z M 74.521 25.928 c -0.437 0.236 -0.633 0.756 -0.463 1.222 c 0.171 0.466 0.655 0.732 1.142 0.636 c 2.384 -0.487 4.832 0.791 6.705 3.326 c -3.716 -1.94 -8.525 -2.827 -11.627 -1.846 c -3.25 0.794 -6.955 4.164 -9.102 7.865 c 0.225 -3.178 1.629 -5.583 3.942 -6.426 c 0.469 -0.17 0.74 -0.66 0.637 -1.147 c -0.099 -0.464 -0.51 -0.792 -0.978 -0.792 c -0.023 0 -0.047 0.001 -0.07 0.002 c -4.013 0.279 -7.976 1.752 -10.81 3.896 c 0.907 -2.543 2.362 -4.424 4.247 -5.434 c 0.436 -0.234 0.636 -0.751 0.469 -1.218 s -0.654 -0.74 -1.135 -0.645 c -0.93 0.183 -1.855 0.468 -2.771 0.851 c 1.963 -3.482 3.959 -5.212 5.937 -5.142 c 0.496 0.003 0.888 -0.298 1.003 -0.753 c 0.116 -0.456 -0.101 -0.93 -0.521 -1.141 c -0.826 -0.414 -1.632 -0.699 -2.412 -0.853 c 2.819 -2.191 4.514 -1.696 7.804 1.382 c 0.267 0.249 0.645 0.332 0.993 0.221 c 0.346 -0.113 0.604 -0.405 0.673 -0.762 c 0.44 -2.292 1.242 -3.783 2.451 -4.558 c 0.863 -0.554 1.974 -0.792 3.379 -0.718 c -0.573 0.547 -1.099 1.215 -1.572 2.003 c -0.243 0.403 -0.172 0.92 0.17 1.243 c 0.343 0.323 0.863 0.364 1.25 0.099 c 1.64 -1.119 4.244 -0.727 7.769 1.165 c -0.979 0.167 -1.913 0.421 -2.796 0.764 c -0.462 0.179 -0.723 0.669 -0.614 1.152 c 0.109 0.483 0.564 0.806 1.049 0.778 c 2.138 -0.157 4.368 0.654 6.494 2.315 C 82.215 23.122 78.064 24.005 74.521 25.928 z" style="stroke: none; stroke-width: 1; stroke-dasharray: none; stroke-linecap: butt; stroke-linejoin: miter; stroke-miterlimit: 10; fill: rgb(0,0,0); fill-rule: nonzero; opacity: 1;" transform=" matrix(1 0 0 1 0 0) " stroke-linecap="round" />
</g>
</g>
</svg>